<?xml version="1.0" encoding="UTF-8" standalone="no"?>
<!-- Created with Inkscape (http://www.inkscape.org/) -->

<svg
   xmlns:dc="http://purl.org/dc/elements/1.1/"
   xmlns:cc="http://creativecommons.org/ns#"
   xmlns:rdf="http://www.w3.org/1999/02/22-rdf-syntax-ns#"
   xmlns:svg="http://www.w3.org/2000/svg"
   xmlns="http://www.w3.org/2000/svg"
   xmlns:sodipodi="http://sodipodi.sourceforge.net/DTD/sodipodi-0.dtd"
   xmlns:inkscape="http://www.inkscape.org/namespaces/inkscape"
   width="68.297775mm"
   height="102.16444mm"
   viewBox="0 0 241.99999 362"
   id="svg5701"
   version="1.1"
   inkscape:version="0.91 r13725"
   sodipodi:docname="n-r-1.svg">
  <defs
     id="defs5703" />
  <sodipodi:namedview
     id="base"
     pagecolor="#ffffff"
     bordercolor="#666666"
     borderopacity="1.0"
     inkscape:pageopacity="0.0"
     inkscape:pageshadow="2"
     inkscape:zoom="1.4"
     inkscape:cx="105.36997"
     inkscape:cy="126.75335"
     inkscape:document-units="px"
     inkscape:current-layer="layer1"
     showgrid="false"
     fit-margin-top="0"
     fit-margin-left="0"
     fit-margin-right="0"
     fit-margin-bottom="0"
     inkscape:window-width="851"
     inkscape:window-height="1412"
     inkscape:window-x="4267"
     inkscape:window-y="0"
     inkscape:window-maximized="0"
     inkscape:snap-bbox="true" />
  <metadata
     id="metadata5706">
    <rdf:RDF>
      <cc:Work
         rdf:about="">
        <dc:format>image/svg+xml</dc:format>
        <dc:type
           rdf:resource="http://purl.org/dc/dcmitype/StillImage" />
        <dc:title></dc:title>
      </cc:Work>
    </rdf:RDF>
  </metadata>
  <g
     inkscape:label="Layer 1"
     inkscape:groupmode="layer"
     id="layer1"
     transform="translate(-210.42857,-285.64794)">
    <g
       transform="matrix(4.0000002,0,0,4.0000002,-28.57145,-1042.8009)"
       id="g6563">
      <rect
         width="60"
         height="90"
         rx="10"
         ry="10"
         x="60"
         y="332.36218"
         id="rect2987"
         style="fill:#ffffff;fill-opacity:1;fill-rule:evenodd;stroke:#000000;stroke-width:0.5;stroke-miterlimit:4;stroke-dasharray:none" />
      <rect
         width="50"
         height="80"
         rx="5"
         ry="5"
         x="65"
         y="337.36218"
         id="rect3757"
         style="fill:#ff5555;fill-opacity:1;fill-rule:evenodd;stroke:none" />
      <path
         d="m 105,352.36217 c -22.09139,0 -40,17.90861 -40,40 0,5.52285 4.47715,10 10,10 22.09139,0 40,-17.90861 40,-40 0,-5.52285 -4.47715,-10 -10,-10 z"
         id="path3773-0-4-8-4"
         style="fill:#ffffff;fill-opacity:1;fill-rule:evenodd;stroke:none"
         inkscape:connector-curvature="0" />
      <path
         d="m 88,362.36217 -5,5 0,6 5,-5 0,24 5,0 0,-30 z"
         id="rect3921"
         style="fill:#ff5555;fill-opacity:1;fill-rule:evenodd;stroke:none"
         inkscape:connector-curvature="0" />
      <path
         d="m 70,339.86217 -2.5,2.5 0,3 2.5,-2.5 0,12 2.5,0 0,-15 z"
         id="rect3921-5"
         style="fill:#ffffff;fill-opacity:1;fill-rule:evenodd;stroke:none"
         inkscape:connector-curvature="0" />
      <path
         d="m 110,414.86217 2.5,-2.5 0,-3 -2.5,2.5 0,-12 -2.5,0 0,15 z"
         id="rect3921-5-5"
         style="fill:#ffffff;fill-opacity:1;fill-rule:evenodd;stroke:none"
         inkscape:connector-curvature="0" />
    </g>
  </g>
</svg>
