<?xml version="1.0" encoding="UTF-8" standalone="no"?>
<!-- Created with Inkscape (http://www.inkscape.org/) -->

<svg
   xmlns:dc="http://purl.org/dc/elements/1.1/"
   xmlns:cc="http://creativecommons.org/ns#"
   xmlns:rdf="http://www.w3.org/1999/02/22-rdf-syntax-ns#"
   xmlns:svg="http://www.w3.org/2000/svg"
   xmlns="http://www.w3.org/2000/svg"
   xmlns:sodipodi="http://sodipodi.sourceforge.net/DTD/sodipodi-0.dtd"
   xmlns:inkscape="http://www.inkscape.org/namespaces/inkscape"
   width="68.297775mm"
   height="102.16444mm"
   viewBox="0 0 241.99999 362"
   id="svg5701"
   version="1.1"
   inkscape:version="0.91 r13725"
   sodipodi:docname="wd-b.svg">
  <defs
     id="defs5703" />
  <sodipodi:namedview
     id="base"
     pagecolor="#ffffff"
     bordercolor="#666666"
     borderopacity="1.0"
     inkscape:pageopacity="0.0"
     inkscape:pageshadow="2"
     inkscape:zoom="1.4"
     inkscape:cx="86.441403"
     inkscape:cy="126.75335"
     inkscape:document-units="px"
     inkscape:current-layer="layer1"
     showgrid="false"
     fit-margin-top="0"
     fit-margin-left="0"
     fit-margin-right="0"
     fit-margin-bottom="0"
     inkscape:window-width="851"
     inkscape:window-height="1412"
     inkscape:window-x="4267"
     inkscape:window-y="0"
     inkscape:window-maximized="0"
     inkscape:snap-bbox="true" />
  <metadata
     id="metadata5706">
    <rdf:RDF>
      <cc:Work
         rdf:about="">
        <dc:format>image/svg+xml</dc:format>
        <dc:type
           rdf:resource="http://purl.org/dc/dcmitype/StillImage" />
        <dc:title></dc:title>
      </cc:Work>
    </rdf:RDF>
  </metadata>
  <g
     inkscape:label="Layer 1"
     inkscape:groupmode="layer"
     id="layer1"
     transform="translate(-210.42857,-285.64794)">
    <g
       transform="matrix(4.0000002,0,0,4.0000002,-2908.5716,-2482.801)"
       id="g6694">
      <rect
         width="60"
         height="90"
         rx="10"
         ry="10"
         x="780"
         y="692.36218"
         id="rect2987-8-5-81-2-1"
         style="fill:#ffffff;fill-opacity:1;fill-rule:evenodd;stroke:#000000;stroke-width:0.5;stroke-miterlimit:4;stroke-dasharray:none" />
      <rect
         width="50"
         height="80"
         rx="5"
         ry="5"
         x="785"
         y="697.36218"
         id="rect3757-26-33-5-9-9"
         style="fill:#000000;fill-opacity:1;fill-rule:evenodd;stroke:none" />
      <path
         d="m 825,712.36218 c -22.09139,0 -40,17.90861 -40,40 0,5.52285 4.47715,10 10,10 22.09139,0 40,-17.90861 40,-40 0,-5.52285 -4.47715,-10 -10,-10 z"
         id="path3773-0-4-8-4-60-3-86-5-6"
         style="fill:#ffffff;fill-opacity:1;fill-rule:evenodd;stroke:none"
         inkscape:connector-curvature="0" />
      <path
         d="m 799.9,699.86217 -4.9,10 0,2.50001 6,0 0,2.50001 2.5,0 0,-2.50001 1.5,0 0,-2.50001 -1.5,0 0,-4.99999 -2.5,0 0,4.99999 -3.4,0 4.9,-10 z"
         id="rect3980-7-6-2-9-5-60-5-3-1-5"
         style="fill:#ffffff;fill-opacity:1;stroke:none"
         inkscape:connector-curvature="0" />
      <path
         d="m 788.5,704.86216 0,2.50002 -2.5,0 0,2.49996 2.5,0 0,2.50002 2.5,0 0,-2.50002 2.5,0 0,-2.49996 -2.5,0 0,-2.50002 -2.5,0 z"
         id="rect5649-4"
         style="fill:#ffffff;fill-opacity:1;fill-rule:evenodd;stroke:none"
         inkscape:connector-curvature="0" />
      <path
         d="m 820.1,774.86219 4.9,-10 0,-2.50001 -6,0 0,-2.50001 -2.5,0 0,2.50001 -1.5,0 0,2.50001 1.5,0 0,4.99999 2.5,0 0,-4.99999 3.4,0 -4.9,10 z"
         id="rect3980-7-6-2-9-5-60-5-3-1-8-9"
         style="fill:#ffffff;fill-opacity:1;stroke:none"
         inkscape:connector-curvature="0" />
      <path
         d="m 831.5,769.8622 0,-2.50002 2.5,0 0,-2.49996 -2.5,0 0,-2.50002 -2.5,0 0,2.50002 -2.5,0 0,2.49996 2.5,0 0,2.50002 2.5,0 z"
         id="rect5649-1-1"
         style="fill:#ffffff;fill-opacity:1;fill-rule:evenodd;stroke:none"
         inkscape:connector-curvature="0" />
      <g
         transform="translate(119.99999,429.99998)"
         id="g6111-38-2"
         style="opacity:0.5">
        <rect
           width="15"
           height="23.40037"
           rx="2.5"
           ry="2.3477995"
           x="762.46088"
           y="306.66135"
           transform="matrix(1,0,-0.27472185,0.96152374,0,0)"
           id="rect6095-2-9"
           style="fill:#ffffff;fill-opacity:1;fill-rule:evenodd;stroke:#000000;stroke-width:0.50990587;stroke-miterlimit:4;stroke-dasharray:none" />
        <rect
           width="10"
           height="18.200279"
           rx="2.4999874"
           ry="2.3477879"
           x="764.96088"
           y="309.26141"
           transform="matrix(1,0,-0.27472185,0.96152374,0,0)"
           id="rect6097-5-7"
           style="fill:#ff5555;fill-opacity:1;fill-rule:evenodd;stroke:none" />
      </g>
      <g
         transform="translate(137.49998,429.99999)"
         id="g6111-62-7-3"
         style="opacity:0.5">
        <rect
           width="15"
           height="23.40037"
           rx="2.5"
           ry="2.3477995"
           x="762.46088"
           y="306.66135"
           transform="matrix(1,0,-0.27472185,0.96152374,0,0)"
           id="rect6095-14-8-2"
           style="fill:#ffffff;fill-opacity:1;fill-rule:evenodd;stroke:#000000;stroke-width:0.50990587;stroke-miterlimit:4;stroke-dasharray:none" />
        <rect
           width="10"
           height="18.200279"
           rx="2.4999874"
           ry="2.3477879"
           x="764.96088"
           y="309.26141"
           transform="matrix(1,0,-0.27472185,0.96152374,0,0)"
           id="rect6097-6-7-1"
           style="fill:#55aa55;fill-opacity:1;fill-rule:evenodd;stroke:none" />
      </g>
    </g>
    <g
       style="opacity:0.5"
       transform="matrix(4.0000002,0,0,4.0000002,-2398.5716,-732.80102)"
       id="g6111-3-5">
      <rect
         width="15"
         height="23.40037"
         rx="2.5"
         ry="2.3477995"
         x="762.46088"
         y="306.66135"
         transform="matrix(1,0,-0.27472185,0.96152374,0,0)"
         id="rect6095-0-3"
         style="fill:#ffffff;fill-opacity:1;fill-rule:evenodd;stroke:#000000;stroke-width:0.50990587;stroke-miterlimit:4;stroke-dasharray:none" />
      <rect
         width="10"
         height="18.200279"
         rx="2.4999874"
         ry="2.3477879"
         x="764.96088"
         y="309.26141"
         transform="matrix(1,0,-0.27472185,0.96152374,0,0)"
         id="rect6097-7-4"
         style="fill:#ffaa00;fill-opacity:1;fill-rule:evenodd;stroke:none" />
    </g>
    <g
       style=""
       transform="matrix(4.0000002,0,0,4.0000002,-2388.5717,-792.80102)"
       id="g6111-62-2-1">
      <rect
         width="15"
         height="23.40037"
         rx="2.5"
         ry="2.3477995"
         x="762.46088"
         y="306.66135"
         transform="matrix(1,0,-0.27472185,0.96152374,0,0)"
         id="rect6095-14-0-3"
         style="fill:#ffffff;fill-opacity:1;fill-rule:evenodd;stroke:#000000;stroke-width:0.50990587;stroke-miterlimit:4;stroke-dasharray:none" />
      <rect
         width="10"
         height="18.200279"
         rx="2.4999874"
         ry="2.3477879"
         x="764.96088"
         y="309.26141"
         transform="matrix(1,0,-0.27472185,0.96152374,0,0)"
         id="rect6097-6-3-2"
         style="fill:#5555ff;fill-opacity:1;fill-rule:evenodd;stroke:none" />
    </g>
  </g>
</svg>
